HIERARCHY
ROOT Hips
{
  OFFSET 51.9666 84.374 9.07797
  CHANNELS 6 Xposition Yposition Zposition Zrotation Xrotation Yrotation
  JOINT spine
  {
    OFFSET 0 5.95438 0.342407
    CHANNELS 3 Zrotation Xrotation Yrotation
    JOINT spine1
    {
      OFFSET 0 8.85602 0
      CHANNELS 3 Zrotation Xrotation Yrotation
      JOINT spine2
      {
        OFFSET 0 8.48567 0
        CHANNELS 3 Zrotation Xrotation Yrotation
        JOINT Neck
        {
          OFFSET 0 21.7863 1.0387
          CHANNELS 3 Zrotation Xrotation Yrotation
          JOINT Head
          {
            OFFSET 0 6.5822 0
            CHANNELS 3 Zrotation Xrotation Yrotation
            End Site
            {
              OFFSET 0 15.9326 -5.25436
            }
          }
        }
        JOINT RightShoulder
        {
          OFFSET -3.57307 9.16386 -0.497525
          CHANNELS 3 Zrotation Xrotation Yrotation
          JOINT RightArm
          {
            OFFSET 0 12.0192 0
            CHANNELS 3 Zrotation Xrotation Yrotation
            JOINT RightArmRoll
            {
              OFFSET 0 6.06754 0
              CHANNELS 3 Zrotation Xrotation Yrotation
              JOINT RightForeArm
              {
                OFFSET 0 17.6726 0
                CHANNELS 3 Zrotation Xrotation Yrotation
                JOINT RightForeArmRoll
                {
                  OFFSET 0 6.80872 0
                  CHANNELS 3 Zrotation Xrotation Yrotation
                  JOINT RightHand
                  {
                    OFFSET 0 13.6636 0
                    CHANNELS 3 Zrotation Xrotation Yrotation
                    End Site
                    {
                      OFFSET 0 0 0
                    }
                  }
                }
              }
            }
          }
        }
        JOINT LeftShoulder
        {
          OFFSET 3.57307 9.16386 -0.497525
          CHANNELS 3 Zrotation Xrotation Yrotation
          JOINT LeftArm
          {
            OFFSET 0 12.0192 0
            CHANNELS 3 Zrotation Xrotation Yrotation
            JOINT LeftArmRoll
            {
              OFFSET 0 6.06755 0
              CHANNELS 3 Zrotation Xrotation Yrotation
              JOINT LeftForeArm
              {
                OFFSET 0 17.6726 0
                CHANNELS 3 Zrotation Xrotation Yrotation
                JOINT LeftForeArmRoll
                {
                  OFFSET 0 6.80872 0
                  CHANNELS 3 Zrotation Xrotation Yrotation
                  JOINT LeftHand
                  {
                    OFFSET 0 13.6636 0
                    CHANNELS 3 Zrotation Xrotation Yrotation
                    End Site
                    {
                      OFFSET 0 0 0
                    }
                  }
                }
              }
            }
          }
        }
      }
    }
  }
  JOINT RightUpLeg
  {
    OFFSET -5.27774 -0.967797 -0.811858
    CHANNELS 3 Zrotation Xrotation Yrotation
    JOINT RightUpLegRoll
    {
      OFFSET 0 16.0214 0
      CHANNELS 3 Zrotation Xrotation Yrotation
      JOINT RightLeg
      {
        OFFSET 0 -19.8401 0
        CHANNELS 3 Zrotation Xrotation Yrotation
        JOINT RightLegRoll
        {
          OFFSET 0 19.905 0
          CHANNELS 3 Zrotation Xrotation Yrotation
          JOINT RightFoot
          {
            OFFSET 0 16.5675 0
            CHANNELS 3 Zrotation Xrotation Yrotation
            JOINT RightToeBase
            {
              OFFSET 0 13.8496 0
              CHANNELS 3 Zrotation Xrotation Yrotation
              End Site
              {
                OFFSET 0.00587034 6.70728 -0.773117
              }
            }
          }
        }
      }
    }
  }
  JOINT LeftUpLeg
  {
    OFFSET 5.27774 -0.967797 -0.811858
    CHANNELS 3 Zrotation Xrotation Yrotation
    JOINT LeftUpLegRoll
    {
      OFFSET 0 16.0215 0
      CHANNELS 3 Zrotation Xrotation Yrotation
      JOINT LeftLeg
      {
        OFFSET 0 19.84 0
        CHANNELS 3 Zrotation Xrotation Yrotation
        JOINT LeftLegRoll
        {
          OFFSET 0 20.089 0
          CHANNELS 3 Zrotation Xrotation Yrotation
          JOINT LeftFoot
          {
            OFFSET 0 16.3835 0
            CHANNELS 3 Zrotation Xrotation Yrotation
            JOINT LeftToeBase
            {
              OFFSET 0 13.8496 0
              CHANNELS 3 Zrotation Xrotation Yrotation
              End Site
              {
                OFFSET -0.0263083 6.70728 -0.773117
              }
            }
          }
        }
      }
    }
  }
}
MOTION
Frames: 9
Frame Time: 0.00208333
49.7143 84.2559 7.35709 -2.02247 -3.6427 4.41429 -0.166804 -2.45282 0.0399403 -0.326486 -0.902987 0.0951301 -0.327642 0.742073 0.100674 -12.7356 25.5535 -4.89019 33.0397 2.4932 -8.47738 0.592046 -10.9306 -7.59888 6.20397 44.2516 81.003 -2.79946e-007 6.5547e-009 6.44878e-008 -10.2805 77.0023 5.49873 1.63879e-006 -1.88281e-006 -3 8.03008 -4.95136 0.697625 -88.8174 -5.9747 5.05631 -89.2608 22.6161 -6.87188 -3.7992e-006 8.89396e-008 9.44339e-007 3.63917 -0.0277042 1.99262 1.27749e-005 -3.07355e-006 3.0116 -8.03011 -4.95138 -0.697633 -175.757 -0.00568491 0.326158 180 7.01552e-015 178.945 177.734 6.17368 179.914 4.21075e-006 4.10909e-006 0.0697176 -18.8607 68.264 19.7399 8.13649 25.2327 -3.48774 -174.782 5.55439 -2.39291 4.54188e-006 -4.6773e-006 -1.03037 -2.43346 -14.3686 0.11584 -4.93397e-006 1.252e-006 -0.252758 20.5645 70.2299 -21.598 -8.13649 25.2327 3.48774 
49.7244 84.256 7.36411 -2.0215 -3.62656 4.39456 -0.166615 -2.45746 0.0393779 -0.327861 -0.912256 0.093801 -0.328998 0.732803 0.0993455 -12.6951 25.5712 -4.87041 32.9631 2.51205 -8.45153 0.583389 -10.9709 -7.67461 6.47664 44.017 80.8104 -2.79946e-007 6.55469e-009 6.44878e-008 -10.1838 76.844 5.40066 1.63879e-006 -1.88281e-006 -3 8.03008 -4.95136 0.697625 -88.8074 -5.93887 5.04503 -89.2408 22.5714 -6.90079 -3.7992e-006 8.89396e-008 9.44339e-007 3.63917 -0.0277042 1.99262 1.27749e-005 -3.07355e-006 3.0116 -8.03011 -4.95138 -0.697633 -175.763 0.00373491 0.324296 180 7.01552e-015 178.945 177.739 6.17368 179.913 4.21075e-006 4.10909e-006 0.0698545 -18.8609 68.2642 19.7399 8.13649 25.2327 -3.48774 -174.789 5.55938 -2.38868 4.54188e-006 -4.6773e-006 -1.03026 -2.43474 -14.3667 0.115716 -4.93397e-006 1.252e-006 -0.252795 20.566 70.2314 -21.5996 -8.13649 25.2327 3.48774 
49.7385 84.2565 7.37133 -2.02037 -3.61112 4.37361 -0.166435 -2.46197 0.0388183 -0.329265 -0.921267 0.0924734 -0.330385 0.723792 0.0980176 -12.6518 25.5899 -4.85156 32.8845 2.53001 -8.42532 0.576493 -11.0107 -7.74924 6.75003 43.7812 80.6172 -2.79946e-007 6.55471e-009 6.44878e-008 -10.0886 76.6843 5.30403 1.63879e-006 -1.88281e-006 -3 8.03008 -4.95136 0.697625 -88.7965 -5.90289 5.03363 -89.2218 22.5261 -6.92898 -3.7992e-006 8.89396e-008 9.44339e-007 3.63917 -0.0277042 1.99262 1.27749e-005 -3.07355e-006 3.0116 -8.03011 -4.95138 -0.697633 -175.769 0.0123208 0.322764 180 7.01552e-015 178.945 177.744 6.17356 179.913 4.21075e-006 4.10909e-006 0.0699907 -18.861 68.2642 19.7398 8.13649 25.2327 -3.48774 -174.798 5.56288 -2.38439 4.54188e-006 -4.6773e-006 -1.03016 -2.43613 -14.3641 0.115584 -4.93397e-006 1.252e-006 -0.252814 20.5677 70.233 -21.6013 -8.13649 25.2327 3.48774 
49.7375 84.258 7.38408 -2.01908 -3.59644 4.35131 -0.16632 -2.46631 0.0382583 -0.330766 -0.92996 0.091148 -0.331868 0.715099 0.0966943 -12.6046 25.61 -4.83414 32.8028 2.54561 -8.39849 0.571686 -11.05 -7.82277 7.0241 43.544 80.4236 -2.79946e-007 6.5547e-009 6.44878e-008 -9.99478 76.5231 5.20884 1.63879e-006 -1.88281e-006 -3 8.03008 -4.95136 0.697625 -88.7841 -5.86679 5.0221 -89.2045 22.4801 -6.95593 -3.7992e-006 8.89396e-008 9.44339e-007 3.63917 -0.0277042 1.99262 1.27749e-005 -3.07355e-006 3.0116 -8.03011 -4.95138 -0.697633 -175.775 0.020031 0.321554 180 7.01552e-015 178.945 177.75 6.17339 179.912 4.21075e-006 4.10909e-006 0.0701254 -18.861 68.2642 19.7396 8.13649 25.2327 -3.48774 -174.806 5.56469 -2.38011 4.54188e-006 -4.6773e-006 -1.03008 -2.43766 -14.3606 0.115437 -4.93397e-006 1.252e-006 -0.25281 20.5694 70.2348 -21.6031 -8.13649 25.2327 3.48774 
49.7466 84.2564 7.38729 -2.01763 -3.5826 4.32754 -0.166324 -2.47047 0.0376943 -0.332429 -0.938274 0.0898252 -0.333513 0.706785 0.0953792 -12.5525 25.6321 -4.81866 32.7172 2.55735 -8.37076 0.569298 -11.0887 -7.89525 7.29876 43.3054 80.2294 -2.79946e-007 6.5547e-009 6.44878e-008 -9.90245 76.3605 5.11508 1.63879e-006 -1.88281e-006 -3 8.03008 -4.95136 0.697625 -88.7694 -5.83058 5.01039 -89.1896 22.4332 -6.98113 -3.7992e-006 8.89396e-008 9.44339e-007 3.63917 -0.0277042 1.99262 1.27749e-005 -3.07355e-006 3.0116 -8.03011 -4.95138 -0.697633 -175.782 0.0268236 0.320656 180 7.01552e-015 178.945 177.755 6.17327 179.911 4.21075e-006 4.10909e-006 0.0702576 -18.8609 68.264 19.7393 8.13649 25.2327 -3.48774 -174.815 5.56463 -2.3759 4.54188e-006 -4.6773e-006 -1.03001 -2.43938 -14.3562 0.115263 -4.93397e-006 1.252e-006 -0.252777 20.5711 70.2364 -21.6049 -8.13649 25.2327 3.48774 
49.7506 84.2587 7.39371 -2.01602 -3.56969 4.3022 -0.166503 -2.47441 0.0371231 -0.334321 -0.946147 0.0885056 -0.335387 0.698911 0.0940759 -12.4945 25.6567 -4.80561 32.6267 2.56378 -8.34189 0.569654 -11.127 -7.96668 7.57392 43.0652 80.0347 -2.79946e-007 6.55469e-009 6.44878e-008 -9.81157 76.1966 5.02278 1.63879e-006 -1.88281e-006 -3 8.03008 -4.95136 0.697625 -88.7517 -5.79429 4.99848 -89.1779 22.3853 -7.00407 -3.7992e-006 8.89396e-008 9.44339e-007 3.63917 -0.0277042 1.99262 1.27749e-005 -3.07355e-006 3.0116 -8.03011 -4.95138 -0.697633 -175.789 0.0326571 0.320062 180 7.01552e-015 178.945 177.76 6.17326 179.911 4.21075e-006 4.10909e-006 0.0703863 -18.8608 68.2638 19.7389 8.13649 25.2327 -3.48774 -174.823 5.56248 -2.37183 4.54188e-006 -4.6773e-006 -1.02996 -2.44133 -14.3508 0.115056 -4.93397e-006 1.252e-006 -0.252709 20.5726 70.238 -21.6065 -8.13649 25.2327 3.48774 
49.7603 84.2614 7.40192 -2.01425 -3.55777 4.27514 -0.166913 -2.47809 0.0365412 -0.336506 -0.95352 0.0871899 -0.337556 0.691538 0.0927881 -12.4297 25.6843 -4.79551 32.5302 2.5634 -8.31159 0.573082 -11.1648 -8.03709 7.84951 42.8234 79.8396 -2.79946e-007 6.5547e-009 6.44878e-008 -9.72214 76.0313 4.93191 1.63879e-006 -1.88281e-006 -3 8.03008 -4.95136 0.697625 -88.7302 -5.75792 4.98633 -89.1698 22.3362 -7.02423 -3.7992e-006 8.89396e-008 9.44339e-007 3.63917 -0.0277042 1.99262 1.27749e-005 -3.07355e-006 3.0116 -8.03011 -4.95138 -0.697633 -175.796 0.0374895 0.319763 180 7.01552e-015 178.946 177.765 6.17342 179.91 4.21075e-006 4.10909e-006 0.0705108 -18.8607 68.2636 19.7386 8.13649 25.2327 -3.48774 -174.832 5.55805 -2.36798 4.54188e-006 -4.6773e-006 -1.02993 -2.44355 -14.3441 0.114805 -4.93397e-006 1.252e-006 -0.252601 20.5738 70.2392 -21.6078 -8.13649 25.2327 3.48774 
49.7803 84.2624 7.40557 -2.01232 -3.54692 4.24626 -0.16761 -2.4815 0.0359453 -0.339053 -0.960331 0.0858787 -0.340087 0.684727 0.0915193 -12.3569 25.7154 -4.78885 32.4268 2.55475 -8.27962 0.579908 -11.2022 -8.10651 8.12543 42.5799 79.6441 -2.79946e-007 6.5547e-009 6.44878e-008 -9.63415 75.8647 4.84248 1.63879e-006 -1.88281e-006 -3 8.03008 -4.95136 0.697625 -88.7043 -5.72151 4.97391 -89.1661 22.2857 -7.0411 -3.7992e-006 8.89396e-008 9.44339e-007 3.63917 -0.0277042 1.99262 1.27749e-005 -3.07355e-006 3.0116 -8.03011 -4.95138 -0.697633 -175.803 0.0412792 0.319751 180 7.01552e-015 178.946 177.77 6.17384 179.91 4.21075e-006 4.10909e-006 0.0706299 -18.8606 68.2634 19.7383 8.13649 25.2327 -3.48774 -174.841 5.55114 -2.3644 4.54188e-006 -4.6773e-006 -1.02992 -2.4461 -14.3362 0.114501 -4.93397e-006 1.252e-006 -0.252447 20.5746 70.2401 -21.6086 -8.13649 25.2327 3.48774 
49.785 84.2619 7.41816 -2.01021 -3.53721 4.21544 -0.168648 -2.4846 0.035332 -0.342026 -0.96652 0.0845724 -0.343044 0.678537 0.0902731 -12.2752 25.7505 -4.78614 32.3157 2.53634 -8.24569 0.590459 -11.2392 -8.17496 8.40161 42.3346 79.4482 -2.79946e-007 6.55469e-009 6.44878e-008 -9.54759 75.6969 4.75448 1.63879e-006 -1.88281e-006 -3 8.03008 -4.95136 0.697625 -88.6731 -5.68507 4.96119 -89.1675 22.2337 -7.05419 -3.7992e-006 8.89396e-008 9.4434e-007 3.63917 -0.0277042 1.99262 1.27749e-005 -3.07355e-006 3.0116 -8.03011 -4.95138 -0.697633 -175.811 0.0439844 0.320017 180 7.01552e-015 178.946 177.775 6.17458 179.909 4.21075e-006 4.10909e-006 0.0707428 -18.8605 68.2633 19.738 8.13649 25.2327 -3.48774 -174.849 5.54156 -2.36117 4.54188e-006 -4.6773e-006 -1.02993 -2.44902 -14.3268 0.114135 -4.93397e-006 1.252e-006 -0.252242 20.575 70.2405 -21.609 -8.13649 25.2327 3.48774 
